<svg xmlns="http://www.w3.org/2000/svg" width="72" height="40" viewBox="0 0 72 40">
  <g fill="#000" fill-rule="evenodd">
      <path d="M27.908 20.11v-7.653c0-4.154 3.367-7.533 7.506-7.533 4.14 0 7.51 3.379 7.51 7.533v7.653c0 4.155-3.37 7.535-7.51 7.535-4.139 0-7.506-3.38-7.506-7.535zm20.096 15.902s-2.323 1.572-4.627 1.401c-1.19-.086-2.161-.013-3.737-1.41-1.351-1.202-1.768-3.024-1.871-3.662 5.73-1.105 10.061-6.159 10.061-12.23v-7.654C47.83 5.577 42.271 0 35.414 0S23 5.578 23 12.457v7.653a12.447 12.447 0 0 0 9.514 12.105c-.013.008-.032.016-.045.026.065.34.665 3.113 2.8 5.172 2.615 2.523 6.165 2.572 6.165 2.572 4.917.248 7.566-2.631 7.566-2.631l-.996-1.342zM8.079 11.274H0V6h22v5.274h-8.079V32H8.08zM58.079 11.274H50V6h22v5.274h-8.08V32H58.08z"/>
  </g>
</svg>